<?xml version="1.0" encoding="utf-8"?>
<!-- Generator: Adobe Illustrator 19.0.0, SVG Export Plug-In . SVG Version: 6.00 Build 0)  -->
<svg version="1.1" id="Layer_1" xmlns="http://www.w3.org/2000/svg" xmlns:xlink="http://www.w3.org/1999/xlink" x="0px" y="0px"
	 viewBox="0 0 960 560" style="enable-background:new 0 0 960 560;" xml:space="preserve">
<style type="text/css">
	.st0{fill:#023047;}
</style>
<path id="XMLID_1_" class="st0" d="M759.9,266.7c2.1,9.5,2.6,19.2,1.5,29.2c-1.1,10-4.2,18.3-9.2,24.9c-11-1.2-19.2-5.4-24.6-12.6
	c-5.4-7.2-8.5-15.5-9.4-24.9c-0.9-9.4-0.1-18,2.4-25.9c2.5-7.9,6.1-13.1,10.9-15.8c7.1-3.1,13.1-2.1,17.9,3.1
	C754.3,249.8,757.8,257.2,759.9,266.7z M226.4,361.1c-4.1-1.3-11-2.9-18.9-3.3c-3.1-0.1-6.1,0-10.1,0.4c-5.2,0.5-10.3,2.4-15.3,5.5
	c-5,3.2-9.2,7.5-12.7,13.1c-3.5,5.6-5.5,12.2-6.2,20c-0.5,8,0.8,14.6,4,19.9c3.2,5.3,7.6,9,13.1,11.2c8.1,3.2,15.9,2.1,18.6,1.5
	c11-2.2,17.6-9.2,19.5-11.3c4.5-5,6.9-10.3,8.1-14.6c0.7-2.3-2-4.2-3.9-2.8c-5.2,3.7-13.4,7.9-23,6.9c-3.4-0.4-11.3-1.2-14.6-7.2
	c-2.7-4.9-0.8-10.3-0.5-11.2c1.3-4,6.5-8.8,12.3-11.5c4.2-1.9,11.9-4.3,27.8-2c6.1,0.8,14.4,2.5,24.1,6c2.6,0.9,4.6-2.3,2.7-4.2
	C245.6,371.6,236.8,364.4,226.4,361.1z M354.2,208.6c-5.7-1.9-11.6-2.9-17.8-2.9c-6.2,0-12.3,1.2-18.3,3.8c-0.1,3.1,0,7.1,0.5,12.1
	c0.6,6.5,0.8,13.9,0.7,22.3c-0.2,8.4-1.6,17.1-4.2,26.1c-2.6,9-7.5,17.6-14.5,25.9c-10.3,11.5-23,19.8-38.2,24.8
	c-15.1,5.1-32.3,7.3-51.5,6.7c-24.5-0.9-42.6-5-54.2-12.4c-11.6-7.4-18.9-16.6-21.7-27.7c-2.9-11.1-3.2-22.6-1.2-34.5
	c2.1-11.9,4.6-22.7,7.7-32.5c3.1-10,4.7-17.4,4.7-22.3c-5.2-3.2-11.4-5.6-18.6-7.1c-7.2-1.5-15.1-1.3-23.8,0.8
	c-0.4,0.3-2.3,4.1-5.5,11.3c-3.3,7.3-6.3,16.6-9.2,28.2c-2.8,11.6-3.6,23.9-2.3,37c1.3,13.1,6.3,25.6,15.1,37.6s23.1,22,43,30.1
	c19.8,8.1,47,12.9,81.5,14.2c30.6,0.8,55.6-3.1,75-11.6c19.4-8.6,34.3-19.6,44.5-33.1c10.2-13.5,16.8-27.3,19.8-41.4
	c2.9-14.1,3.2-26.3,0.9-36.6C364.1,217,360,210.8,354.2,208.6z M494.5,189.8c11.9-2.5,22.5-9.2,31.9-20.2
	c3.9-4.7,8.4-11.6,13.6-20.8c5.1-9.2,8.5-17.8,10.1-25.9c-4.3-6.1-10-10.6-17.1-13.6c-7.1-3-15.6-3.7-25.5-2.1
	c-1.8,4.1-3.6,8.5-5.4,13.3c-2.7,7.8-5.9,15.4-9.7,22.7c-3.8,7.4-8.8,13-15,17c-6.9,3.7-13.6,3.6-20-0.3c-6.4-3.9-13.1-9.4-20-16.5
	c-6.4-6.3-13.4-12.2-21-17.9c-7.6-5.6-16.2-9.2-25.9-10.7c-9.7-1.5-20.8,0.5-33.4,6.2c-9.1,4.6-17.1,11.8-24,21.7
	c-6.9,9.9-10.6,19.8-11.1,29.8c4.9,4.6,11.1,7.8,18.7,9.6c7.6,1.8,15.8,1.5,24.7-0.9c0.6-1.6,1.2-3.2,1.7-4.8
	c3.9-12.6,7.8-22.1,11.6-28.3c3.8-6.3,9.5-8.1,16.8-5.5c7.4,2.6,18.1,10.9,32.2,25c9.2,9,19.7,15.6,31.5,19.7
	C470.8,191.5,482.6,192.3,494.5,189.8z M870.6,293.3c-3.4,14.6-8.9,26-16.6,34.1c-7.6,8.1-16.4,13.7-26.7,16.6
	c-7.8,2.1-15.3,3-23.3,2.9v0.1c-3,0-7.3-0.1-10.7-0.3c-9,21.7-18.5,40.3-28.1,55.8c-9.7,15.5-16.1,24.2-19.1,26.2
	c-4.6,0.9-8.6,1.3-11.9,1.3c-3.3,0-7.2-0.4-11.5-1.1c-0.3-0.1-0.7-0.2-1.1-0.3c-1.8-0.2-3.7-0.5-5.7-0.8c-2-0.4-3.7-0.7-5-1.1
	l-8.5-4.7c3.7-8.8,8.1-16.9,13.4-24.4c2.6-4.1,5.1-8.2,7.6-12.4c1.3-2.3,2.7-4.7,4.2-7.2c2.9-4.8,5.7-9.8,8.3-15
	c2.6-5.2,4.7-10.5,6.1-16c-12.2,0-22.7-1.9-31.4-5.8c-8.8-3.8-16.1-9.1-22-15.8c-11.1-13-16.9-27-17.4-41.9
	c-0.5-14.9,3.4-28.4,11.8-40.3c8.4-11.9,20.3-20,35.7-24.2c15.4-4.2,33.4-2.1,54.1,6.3c13.2,5.9,22.4,14.2,27.7,24.8
	c5.2,10.6,7.6,22.6,7,36c-0.6,13.3-3.1,27.1-7.5,41.2c0.6,0,1.2,0,1.8,0.1c4.8-0.4,9.1-3,12.9-8.1c4.1-5.5,7.1-14.6,9.1-27.4
	c1.9-12.8,2.5-30,1.6-51.7c-0.5-9.2-1.3-20.7-2.5-34.6c-1.2-13.8-2.9-33.1-5.3-57.6c5.5-1.6,12.2-2.9,20.2-3.7
	c7.9-0.9,15.9,0.3,23.9,3.6c3.6,8.2,6.5,21.6,8.8,40.2c2.2,18.6,3.4,37.9,3.6,57.8C874.1,265.6,873,281.5,870.6,293.3z M759.9,266.7
	c-2.2-9.5-5.7-16.8-10.5-22c-4.8-5.2-10.8-6.2-17.9-3.1c-4.8,2.6-8.4,7.9-10.9,15.8c-2.5,7.9-3.3,16.5-2.4,25.9
	c0.9,9.4,4,17.7,9.4,24.9c5.4,7.2,13.6,11.4,24.6,12.6c5-6.6,8.1-14.9,9.2-24.9C762.6,285.9,762.1,276.2,759.9,266.7z M426.2,197.3
	c-7.4-0.9-15.3,0.2-23.5,3.2c-1.3,3-2.6,12.8-3.9,29.5c-1.3,16.7-2.4,35.7-3.4,57.1c-1,21.4-1.5,40.6-1.7,57.7
	c-0.2,17.1,0.3,27.6,1.3,31.5c0.2,0.1,0.5,0.2,0.8,0.3c6.7,1.7,13.4,2.8,20,3.3c6.6,0.5,14.6-0.6,23.8-3.3c0.2-3.6,0.5-8.6,1.1-15
	c1-15.2,2.2-34,3.5-56.5c1.3-22.5,2.3-43.6,2.8-63.3c0.5-19.7,0.1-32.9-1.3-39.7C440.2,199.8,433.7,198.2,426.2,197.3z M651.3,168.5
	c-3.7-1.8-7.9-3.2-12.5-4.4c-4.7-1.1-10-1.5-16-1.2c-9.3,0.5-14.7,1.9-16.2,4.2c-1.5,2.3-1.3,6.5,0.6,12.6c0.4,1.8,0.8,3.8,1.3,6
	c8.6,42.2,11.9,76.7,10,103.7c-1.9,26.9-7.1,47.4-15.7,61.5c-8.6,14-18.6,22.8-30.1,26.3c-11.4,3.5-22.4,2.9-32.8-1.9
	c-10.4-4.7-18.3-12.5-23.8-23.2c-5.5-10.7-6.5-23.2-3.2-37.5c3.3-14.3,12.9-29.2,28.8-44.8c4.3-3.8,10.2-8.6,17.8-14.4
	c4.5-3.6,8.6-6.9,12.3-9.9c3.7-3,6.1-5.3,7.3-6.9c-3-3.9-7.3-6.5-13-7.9c-5.7-1.4-11.4-2-17.2-1.8c-6.7,0.4-12.7,2.2-18.1,5.4
	c-5.3,3.2-10.3,6.6-14.9,10.3c-0.4,0.4-0.8,0.8-1.2,1.1c-16.9,13.6-29.1,28.4-36.7,44.4c-7.6,16-10.6,31.7-8.9,47
	c1.6,15.3,7.9,28.7,18.7,40.1c10.8,11.4,26.3,19.2,46.4,23.4c19.6,3.7,37.4,3.1,53.6-1.7c16.1-4.9,29.8-12.3,41-22.5
	c11.2-10.1,19.2-21.5,24-34c7.1-19.2,11.3-38.1,12.6-56.9c1.3-18.7,0.5-37.7-2.2-57C660.5,209.3,656.5,189.3,651.3,168.5z"/>
</svg>
