<?xml version="1.0" encoding="utf-8"?>
<!-- Generator: Adobe Illustrator 19.0.0, SVG Export Plug-In . SVG Version: 6.00 Build 0)  -->
<svg version="1.1" id="Layer_1" xmlns="http://www.w3.org/2000/svg" xmlns:xlink="http://www.w3.org/1999/xlink" x="0px" y="0px"
	 viewBox="0 0 960 560" style="enable-background:new 0 0 960 560;" xml:space="preserve">
<style type="text/css">
	.st0{fill:#F8FAFC;}
	.st1{fill:#219EBC;}
</style>
<path id="XMLID_1_" class="st0" d="M251.4,377.5c-5.8-5.9-14.6-13.1-25-16.4c-4.1-1.3-11-2.9-18.9-3.3c-3.1-0.1-6.1,0-10.1,0.4
	c-5.2,0.5-10.3,2.4-15.3,5.5c-5,3.2-9.2,7.5-12.7,13.1c-3.5,5.6-5.5,12.2-6.2,20c-0.5,8,0.8,14.6,4,19.9s7.6,9,13.1,11.2
	c8.1,3.2,15.9,2.1,18.6,1.5c11-2.2,17.6-9.2,19.5-11.3c4.5-5,6.9-10.3,8.1-14.6c0.7-2.3-2-4.2-3.9-2.8c-5.2,3.7-13.4,7.9-23,6.9
	c-3.4-0.4-11.3-1.2-14.6-7.2c-2.7-4.9-0.8-10.3-0.5-11.2c1.3-4,6.5-8.8,12.3-11.5c4.2-1.9,11.9-4.3,27.8-2c6.1,0.8,14.4,2.5,24.1,6
	C251.3,382.6,253.3,379.4,251.4,377.5z M366.6,227.4c-2.5-10.4-6.6-16.6-12.4-18.8c-5.7-1.9-11.6-2.9-17.8-2.9
	c-6.2,0-12.3,1.2-18.3,3.8c-0.1,3.1,0,7.1,0.5,12.1c0.6,6.5,0.8,13.9,0.7,22.3c-0.2,8.4-1.6,17.1-4.2,26.1
	c-2.6,9-7.5,17.6-14.5,25.9c-10.3,11.5-23,19.8-38.2,24.8c-15.1,5.1-32.3,7.3-51.5,6.7c-24.5-0.9-42.6-5-54.2-12.4
	c-11.6-7.4-18.9-16.6-21.7-27.7c-2.9-11.1-3.2-22.6-1.2-34.5c2.1-11.9,4.6-22.7,7.7-32.5c3.1-10,4.7-17.4,4.7-22.3
	c-5.2-3.2-11.4-5.6-18.6-7.1c-7.2-1.5-15.1-1.3-23.8,0.8c-0.4,0.3-2.3,4.1-5.5,11.3c-3.3,7.3-6.3,16.6-9.2,28.2
	c-2.8,11.6-3.6,23.9-2.3,37c1.3,13.1,6.3,25.6,15.1,37.6c8.8,12,23.1,22,43,30.1c19.8,8.1,47,12.9,81.5,14.2
	c30.6,0.8,55.6-3.1,75-11.6c19.4-8.6,34.3-19.6,44.5-33.1c10.2-13.5,16.8-27.3,19.8-41.4C368.6,249.9,368.9,237.7,366.6,227.4z
	 M533,109.3c-7.1-3-15.6-3.7-25.5-2.1c-1.8,4.1-3.6,8.5-5.4,13.3c-2.7,7.8-5.9,15.4-9.7,22.7c-3.8,7.4-8.8,13-15,17
	c-6.9,3.7-13.6,3.6-20-0.3c-6.4-3.9-13.1-9.4-20-16.5c-6.4-6.3-13.4-12.2-21-17.9c-7.6-5.6-16.2-9.2-25.9-10.7s-20.8,0.5-33.4,6.2
	c-9.1,4.6-17.1,11.8-24,21.7c-6.9,9.9-10.6,19.8-11.1,29.8c4.9,4.6,11.1,7.8,18.7,9.6c7.6,1.8,15.8,1.5,24.7-0.9
	c0.6-1.6,1.2-3.2,1.7-4.8c3.9-12.6,7.8-22.1,11.6-28.3c3.8-6.3,9.5-8.1,16.8-5.5c7.4,2.6,18.1,10.9,32.2,25
	c9.2,9,19.7,15.6,31.5,19.7c11.6,4.2,23.4,5,35.3,2.5s22.5-9.2,31.9-20.2c3.9-4.7,8.4-11.6,13.6-20.8c5.1-9.2,8.5-17.8,10.1-25.9
	C545.8,116.8,540.1,112.3,533,109.3z M445.7,202.1c-5.5-2.3-12-3.9-19.5-4.8c-7.4-0.9-15.3,0.2-23.5,3.2c-1.3,3-2.6,12.8-3.9,29.5
	s-2.4,35.7-3.4,57.1c-1,21.4-1.5,40.6-1.7,57.7c-0.2,17.1,0.3,27.6,1.3,31.5c0.2,0.1,0.5,0.2,0.8,0.3c6.7,1.7,13.4,2.8,20,3.3
	c6.6,0.5,14.6-0.6,23.8-3.3c0.2-3.6,0.5-8.6,1.1-15c1-15.2,2.2-34,3.5-56.5s2.3-43.6,2.8-63.3S447.1,208.9,445.7,202.1z"/>
<path class="st0" d="M874.1,245.9c0,19.7-1.1,35.6-3.5,47.4c-3.4,14.6-8.9,26-16.6,34.1c-7.6,8.1-16.4,13.7-26.7,16.6
	c-7.8,2.1-15.3,3-23.3,2.9v0.1c-3,0-7.3-0.1-10.7-0.3c-9,21.7-18.5,40.3-28.1,55.8c-9.7,15.5-16.1,24.2-19.1,26.2
	c-4.6,0.9-8.6,1.3-11.9,1.3s-7.2-0.4-11.5-1.1c-0.3-0.1-0.7-0.2-1.1-0.3c-1.8-0.2-3.7-0.5-5.7-0.8c-2-0.4-3.7-0.7-5-1.1l-8.5-4.7
	c3.7-8.8,8.1-16.9,13.4-24.4c2.6-4.1,5.1-8.2,7.6-12.4c1.3-2.3,2.7-4.7,4.2-7.2c2.9-4.8,5.7-9.8,8.3-15c2.6-5.2,4.7-10.5,6.1-16
	c-12.2,0-22.7-1.9-31.4-5.8c-8.8-3.8-16.1-9.1-22-15.8c-11.1-13-16.9-27-17.4-41.9s3.4-28.4,11.8-40.3c8.4-11.9,20.3-20,35.7-24.2
	c15.4-4.2,33.4-2.1,54.1,6.3c13.2,5.9,22.4,14.2,27.7,24.8c5.2,10.6,7.6,22.6,7,36c-0.6,13.3-3.1,27.1-7.5,41.2c0.6,0,1.2,0,1.8,0.1
	c4.8-0.4,9.1-3,12.9-8.1c4.1-5.5,7.1-14.6,9.1-27.4c1.9-12.8,2.5-30,1.6-51.7c-0.5-9.2-1.3-20.7-2.5-34.6
	c-1.2-13.8-2.9-33.1-5.3-57.6c5.5-1.6,12.2-2.9,20.2-3.7c7.9-0.9,15.9,0.3,23.9,3.6c3.6,8.2,6.5,21.6,8.8,40.2
	C872.7,206.7,873.9,226,874.1,245.9z"/>
<g>
	<path id="XMLID_10_" class="st1" d="M659.1,280.1c3.3,18.1,4.1,37.2,2,57.1c-1.5,13.1-6.3,25.8-14.4,38.2
		c-8.1,12.4-19.3,22.8-33.4,31.4c-14.1,8.6-31,13.5-50.6,14.8c-20.1,1-36.7-2.7-49.8-10.8c-7.1-4.4-13.1-9.8-18-16
		c-1.7-2.2-6-8.1-9.7-17.5c-8.9-22.7-5.9-45.5-3.9-59.4c1.4-9.5,3.5-23.7,11.2-40.7c3.1-6.8,6.5-12.8,10-18c3.1-4.7,10.3-1.6,9,3.8
		c-2.8,13-3.6,24.1-3.9,32.3c-0.5,23.2,4,39.8,5.1,44.1c7,25,18.1,37.7,20.8,40.6c7.2,7.9,13.8,11.2,16.2,12.3
		c3.8,1.8,7.9,3.1,12.2,3.8c11.1,1.9,21.6-0.1,31.6-6.3c10-6.1,17.4-17,22.1-32.4c4.7-15.5,4.7-36.2-0.2-62.3
		c-4.8-26.1-16.5-58-35-96.1c-1-2-1.9-3.8-2.7-5.4c-3.3-5.3-4.5-9.2-3.6-11.8s5.7-5.2,14.4-8c5.7-1.8,10.8-2.7,15.5-2.8
		c4.7,0,9,0.3,13,1.1c10,18.5,18.8,36.5,26.1,54.1C650.4,244.2,655.7,262,659.1,280.1z"/>
	<path id="XMLID_2_" class="st1" d="M509.9,246.7c-21.9-4.3-53.1,63.8-45.9,69.8c3.8,3.1,15.5-12.7,32.9-10.2
		c17.1,2.5,23.2,20.4,28.6,18.3C535.8,321,531,250.9,509.9,246.7z"/>
</g>
</svg>
