<?xml version="1.0" standalone="no"?>
<!DOCTYPE svg PUBLIC "-//W3C//DTD SVG 20010904//EN"
 "http://www.w3.org/TR/2001/REC-SVG-20010904/DTD/svg10.dtd">
<svg version="1.0" xmlns="http://www.w3.org/2000/svg"
 width="700.000000pt" height="700.000000pt" viewBox="0 0 700.000000 700.000000"
 preserveAspectRatio="xMidYMid meet">
<metadata>
Created by potrace 1.14, written by Peter Selinger 2001-2017
</metadata>
<g transform="translate(0.000000,700.000000) scale(0.100000,-0.100000)"
fill="#000000" stroke="none">
<path d="M4235 6774 c-258 -46 -558 -172 -599 -253 -35 -66 -11 -160 83 -329
121 -219 398 -828 556 -1227 305 -767 454 -1334 527 -2005 17 -154 17 -638 0
-755 -29 -207 -67 -357 -132 -523 -178 -458 -452 -723 -865 -839 -123 -34
-356 -43 -495 -19 -456 80 -820 393 -1088 938 -183 373 -284 751 -336 1261 -6
53 -5 57 11 48 33 -18 150 -125 234 -215 95 -101 152 -146 185 -146 59 0 109
82 141 230 26 121 26 556 0 750 -51 373 -138 670 -255 864 -62 102 -162 198
-232 221 -67 22 -176 17 -242 -13 -248 -110 -541 -469 -793 -971 -162 -325
-255 -599 -255 -758 0 -60 4 -77 20 -93 38 -38 68 -28 254 85 129 77 234 130
243 121 3 -2 -5 -64 -16 -138 -49 -315 -62 -446 -68 -689 -6 -279 3 -409 47
-629 127 -637 487 -1111 1035 -1365 559 -260 1397 -251 2095 21 490 192 968
575 1257 1009 315 472 423 887 423 1620 -1 803 -198 1647 -598 2560 -151 344
-500 1056 -581 1186 l-29 46 -89 12 c-119 15 -339 13 -438 -5z"/>
</g>
</svg>
